HIERARCHY
ROOT Hips
{
	OFFSET 0.000000 0.000000 0.000000
	CHANNELS 6 Xposition Yposition Zposition Zrotation Xrotation Yrotation
	JOINT RightUpLeg
	{
		OFFSET -10.032200 0.000000 0.000000
		CHANNELS 3 Zrotation Xrotation Yrotation
		JOINT RightLeg
		{
			OFFSET 0.000000 -40.977000 0.000000
			CHANNELS 3 Zrotation Xrotation Yrotation
			JOINT RightFoot
			{
				OFFSET 0.000000 -38.933200 0.000000
				CHANNELS 3 Zrotation Xrotation Yrotation
				JOINT RightToe
				{
					OFFSET 0.000000 -1.977400 9.184000
					CHANNELS 3 Zrotation Xrotation Yrotation
					JOINT RightToeEnd
					{
						OFFSET 0.000000 2.335600 6.099100
						CHANNELS 3 Zrotation Xrotation Yrotation
						End Site
						{
						    OFFSET 0.000000 1.788000 4.669400
						}
					}
				}
			}
		}
	}
	JOINT LeftUpLeg
	{
		OFFSET 10.032200 0.000000 0.000000
		CHANNELS 3 Zrotation Xrotation Yrotation
		JOINT LeftLeg
		{
			OFFSET 0.000000 -40.977000 0.000000
			CHANNELS 3 Zrotation Xrotation Yrotation
			JOINT LeftFoot
			{
				OFFSET 0.000000 -38.933200 0.000000
				CHANNELS 3 Zrotation Xrotation Yrotation
				JOINT LeftToe
				{
					OFFSET 0.000000 -1.977400 9.184000
					CHANNELS 3 Zrotation Xrotation Yrotation
					JOINT LeftToeEnd
					{
						OFFSET 0.000000 2.335600 6.099100
						CHANNELS 3 Zrotation Xrotation Yrotation
						End Site
						{
						    OFFSET 0.000000 1.788000 4.669400
						}
					}
				}
			}
		}
	}
	JOINT Spine
	{
		OFFSET 0.000000 16.960900 0.000000
		CHANNELS 3 Zrotation Xrotation Yrotation
		JOINT Spine1
		{
			OFFSET 0.000000 13.413900 0.000000
			CHANNELS 3 Zrotation Xrotation Yrotation
			JOINT Spine2
			{
				OFFSET 0.000000 10.384400 0.000000
				CHANNELS 3 Zrotation Xrotation Yrotation
				JOINT LeftShoulder
				{
					OFFSET 2.000000 10.384400 0.000000
					CHANNELS 3 Zrotation Xrotation Yrotation
					JOINT LeftArm
					{
						OFFSET 15.649100 0.000000 0.000000
						CHANNELS 3 Zrotation Xrotation Yrotation
						JOINT LeftForeArm
						{
							OFFSET 0.000000 -26.641600 0.000000
							CHANNELS 3 Zrotation Xrotation Yrotation
							JOINT LeftHand
							{
								OFFSET 0.000000 -23.740600 0.000000
								CHANNELS 3 Zrotation Xrotation Yrotation
								JOINT LeftFinger0
								{
									OFFSET 0.000000 -7.620900 0.000000
									CHANNELS 3 Zrotation Xrotation Yrotation
									End Site
									{
									    OFFSET 0.000000 -5.000000 0.000000
									}
								}
							}
						}
					}
				}
				JOINT RightShoulder
				{
					OFFSET -2.000000 10.384400 0.000000
					CHANNELS 3 Zrotation Xrotation Yrotation
					JOINT RightArm
					{
						OFFSET -15.649100 0.000000 0.000000
						CHANNELS 3 Zrotation Xrotation Yrotation
						JOINT RightForeArm
						{
							OFFSET 0.000000 -26.641600 0.000000
							CHANNELS 3 Zrotation Xrotation Yrotation
							JOINT RightHand
							{
								OFFSET 0.000000 -23.740600 0.000000
								CHANNELS 3 Zrotation Xrotation Yrotation
								JOINT RightFinger0
								{
									OFFSET 0.000000 -7.620900 0.000000
									CHANNELS 3 Zrotation Xrotation Yrotation
									End Site
									{
									    OFFSET 0.000000 -5.000000 0.000000
									}
								}
							}
						}
					}
				}
				JOINT Neck
				{
					OFFSET 0.000000 10.384400 0.000000
					CHANNELS 3 Zrotation Xrotation Yrotation
					JOINT Head
					{
						OFFSET 0.000000 10.146900 0.000000
						CHANNELS 3 Zrotation Xrotation Yrotation
						JOINT HeadTip
						{
							OFFSET 0.000000 10.000000 0.000000
							CHANNELS 3 Zrotation Xrotation Yrotation
							End Site
							{
							    OFFSET 0.000000 5.000000 0.000000
							}
						}
					}
				}
			}
		}
	}
}
MOTION
Frames:	13
Frame Time:	0.033332
38.387700 85.007900 63.514800 15.695296 4.103017 -92.508847 -4.431046 -33.018651 -11.346729 0.000000 36.906890 -0.000000 6.737518 14.841424 -3.512705 -0.000000 -8.714057 0.000000 0.000000 -0.000000 -0.000000 17.559505 -38.383518 49.403584 0.000000 19.462462 -0.000000 3.861244 25.308675 -3.547097 -0.000000 4.185614 0.000000 -0.000000 0.000000 -0.000000 -4.041051 43.485329 -1.079728 -0.000000 7.851728 0.000000 -0.000000 -0.000000 0.000000 10.504560 0.000000 -4.300512 109.460399 -61.493451 92.916974 -180.000037 -68.609266 -180.000037 1.670473 6.934434 45.134239 -0.000000 0.000000 -0.000000 -4.809314 -0.000000 5.799340 -84.250783 -22.700345 -92.183331 -0.001228 -82.943451 -0.001086 12.537115 -8.135226 -46.083721 0.000000 0.000000 -0.000000 -0.000000 -0.000000 0.000000 -14.503560 4.151726 -12.498478 -0.000000 0.000000 0.000000 
36.507200 85.408000 65.315800 16.417245 3.796076 -94.194102 -4.633717 -35.198722 -8.761376 -0.000000 40.247677 -0.000000 7.604908 19.148330 -6.800824 -0.000000 -9.512166 -0.000000 -0.000000 0.000000 -0.000000 16.885373 -37.792488 49.365643 -0.000000 20.352153 -0.000000 4.214997 23.078952 -2.141712 -0.000000 2.637340 0.000000 -0.000000 0.000000 0.000000 -3.821883 43.342216 -0.257553 -0.000000 7.699871 -0.000000 0.000000 -0.000000 0.000000 10.134116 -0.000000 -4.170636 108.677850 -61.502456 92.196216 -180.000037 -68.298568 180.000037 1.803375 7.126721 44.958861 0.000000 0.000000 -0.000000 -4.987358 0.000000 5.638390 -83.012141 -22.230469 -92.040150 -0.001320 -83.429125 -0.001177 12.399380 -7.612823 -45.802778 -0.000000 0.000000 -0.000000 0.000000 -0.000000 0.000000 -15.256971 4.213598 -12.372676 -0.000000 -0.000000 -0.000000 
34.590200 85.838400 66.827000 17.126847 3.422974 -95.162490 -4.603087 -37.411003 -6.723183 -0.000000 43.717680 0.000000 7.549364 21.176515 -11.057823 -0.000000 -6.802285 -0.000000 -0.000000 0.000000 -0.000000 15.783886 -37.158743 49.016862 0.000000 20.728751 -0.000000 3.974967 21.390053 -1.390654 -0.000000 1.613300 -0.000000 0.000000 0.000000 -0.000000 -3.585810 43.318817 0.042091 0.000000 7.448963 -0.000000 -0.000000 0.000000 -0.000000 10.062570 0.000000 -4.142084 109.063121 -61.405527 92.656355 -180.000037 -68.261316 -180.000037 1.849220 7.250311 44.762163 0.000000 -0.000000 -0.000000 -5.003933 0.000000 5.621237 -81.371278 -21.069392 -91.196243 -0.001437 -83.960931 -0.001293 12.196721 -7.164184 -45.793212 0.000000 0.000000 -0.000000 -0.000000 0.000000 -0.000000 -15.268962 3.972866 -12.250055 0.000000 0.000000 -0.000000 
32.658400 86.242200 68.085600 18.051629 3.403532 -95.646263 -3.857873 -39.622071 -5.358226 0.000000 46.837356 0.000000 5.241426 21.724555 -15.533766 0.000000 -2.404711 -0.000000 0.000000 -0.000000 -0.000000 14.958840 -36.678065 49.187940 0.000000 20.825149 -0.000000 4.031401 19.860223 -1.500408 -0.000000 0.656362 -0.000000 -0.000000 -0.000000 0.000000 -2.566207 43.095424 -0.321020 0.000000 7.055630 -0.000000 -0.000000 0.000000 -0.000000 10.020237 0.000000 -4.167305 108.988339 -61.363519 92.848880 -180.000037 -68.131378 -180.000037 1.844148 7.362293 44.501866 -0.000000 0.000000 -0.000000 -4.936416 -0.000000 5.798741 -79.817108 -19.570714 -90.051942 -0.001580 -84.504819 -0.001436 12.031217 -6.877102 -45.610423 -0.000000 -0.000000 -0.000000 -0.000000 0.000000 -0.000000 -15.379770 4.074804 -12.458343 -0.000000 0.000000 0.000000 
30.684700 86.625900 69.070600 18.891315 3.545478 -95.472363 -2.980819 -41.347171 -4.997972 -0.000000 48.914564 -0.000000 3.471162 21.571059 -17.063877 0.000000 -0.258399 -0.000000 0.000000 0.000000 -0.000000 14.006514 -36.128034 49.035719 0.000000 20.646623 0.000000 3.963281 18.619699 -2.067646 -0.000000 -0.125118 -0.000000 -0.000000 -0.000000 -0.000000 -0.946802 42.831066 -1.379103 -0.000000 6.809044 -0.000000 -0.000000 0.000000 -0.000000 9.935909 0.000000 -4.393416 108.977387 -61.054464 92.870554 -180.000037 -68.102432 -180.000037 1.773241 7.338401 44.390405 0.000000 0.000000 -0.000000 -4.660466 -0.000000 5.866253 -78.813467 -18.522120 -89.324937 -0.001718 -84.942975 -0.001573 11.849414 -6.428680 -45.477946 0.000000 0.000000 -0.000000 -0.000000 0.000000 -0.000000 -15.402288 4.125626 -12.258082 -0.000000 -0.000000 0.000000 
28.642700 86.990500 69.875400 19.662010 3.768973 -95.099545 -1.728233 -42.661088 -4.861961 -0.000000 49.341129 -0.000000 3.547713 21.231113 -13.978767 -0.000000 -1.294975 -0.000000 -0.000000 0.000000 -0.000000 13.088265 -35.454714 48.681395 -0.000000 20.353616 -0.000000 3.716248 17.446582 -2.631156 -0.000000 -0.735380 -0.000000 -0.000000 0.000000 0.000000 0.782003 42.518346 -2.624656 -0.000000 6.527601 -0.000000 0.000000 -0.000000 -0.000000 10.159286 -0.000000 -4.433593 108.506503 -61.075382 92.520615 180.000037 -68.092385 -180.000037 1.709823 7.220973 44.414477 0.000000 -0.000000 0.000000 -4.220387 0.000000 5.977989 -78.561777 -17.951521 -89.059055 -0.001751 -85.036795 -0.001605 11.822740 -6.359604 -45.393734 -0.000000 0.000000 -0.000000 0.000000 -0.000000 -0.000000 -15.270801 4.328873 -12.192447 -0.000000 0.000000 -0.000000 
26.541900 87.295000 70.580600 20.246202 3.920790 -95.078040 0.064901 -43.591073 -4.437490 -0.000000 47.883727 0.000000 4.217328 21.418064 -10.198376 -0.000000 -1.805329 -0.000000 -0.000000 0.000000 -0.000000 12.418076 -34.540040 48.527622 -0.000000 20.217132 0.000000 3.439478 16.269243 -2.897723 -0.000000 -1.491903 -0.000000 -0.000000 -0.000000 -0.000000 2.106307 42.110132 -3.248157 -0.000000 6.367256 -0.000000 0.000000 0.000000 0.000000 10.080048 -0.000000 -4.765413 108.500424 -60.962554 92.502601 -180.000037 -68.186368 -180.000037 1.605690 7.221815 44.465632 -0.000000 -0.000000 0.000000 -3.927175 0.000000 5.925375 -78.972897 -17.968109 -89.089089 -0.001671 -84.800074 -0.001526 11.590440 -6.163673 -45.134007 0.000000 0.000000 -0.000000 0.000000 0.000000 0.000000 -15.317313 4.482064 -12.151687 -0.000000 0.000000 -0.000000 
24.356500 87.522700 71.212400 20.605642 3.882463 -95.170899 1.587976 -44.141087 -4.742360 -0.000000 44.815373 -0.000000 4.862637 21.927654 -7.208009 -0.000000 -1.887882 -0.000000 -0.000000 -0.000000 0.000000 11.630537 -33.363829 48.227244 -0.000000 20.100891 0.000000 3.071827 15.174378 -2.911021 -0.000000 -2.381718 0.000000 -0.000000 0.000000 -0.000000 3.010199 41.706246 -3.822376 0.000000 6.308402 0.000000 -0.000000 -0.000000 -0.000000 10.014821 0.000000 -4.899448 108.416062 -60.997325 92.575644 -180.000037 -68.159546 -180.000037 1.515616 7.256923 44.491736 -0.000000 0.000000 -0.000000 -3.860986 0.000000 5.964730 -79.474789 -18.388338 -89.331152 -0.001550 -84.397489 -0.001405 11.403001 -6.402217 -45.330322 -0.000000 -0.000000 -0.000000 -0.000000 -0.000000 -0.000000 -15.578903 4.484892 -12.429853 -0.000000 0.000000 -0.000000 
22.115300 87.645500 71.750300 20.613510 3.665125 -94.909031 2.524180 -44.327896 -5.928850 0.000000 40.737487 -0.000000 5.296312 22.206182 -5.483377 -0.000000 -1.272051 -0.000000 -0.000000 0.000000 -0.000000 10.489469 -31.890444 47.689168 0.000000 19.982638 -0.000000 2.803129 14.098664 -3.076359 0.000000 -3.229491 -0.000000 0.000000 -0.000000 0.000000 3.821993 41.501901 -4.829017 0.000000 6.396404 -0.000000 -0.000000 0.000000 0.000000 10.152287 0.000000 -4.726344 108.460809 -61.211508 92.777684 -180.000037 -68.168268 -180.000037 1.526976 7.259073 44.590477 -0.000000 -0.000000 -0.000000 -3.863391 -0.000000 6.020188 -80.070677 -18.731777 -89.559593 -0.001439 -83.968123 -0.001295 11.026887 -6.448580 -45.063661 -0.000000 0.000000 -0.000000 -0.000000 0.000000 0.000000 -15.575090 4.282739 -12.494016 -0.000000 -0.000000 -0.000000 
19.903400 87.688600 72.159300 20.470473 3.344585 -94.307526 3.160487 -44.433947 -7.217268 -0.000000 35.947109 -0.000000 5.496485 22.648841 -4.297597 -0.000000 -0.448158 -0.000000 -0.000000 -0.000000 -0.000000 9.310076 -30.440749 46.777571 -0.000000 20.104504 -0.000000 1.927086 13.144766 -3.273011 -0.000000 -3.884939 -0.000000 0.000000 0.000000 -0.000000 4.641051 41.334813 -6.137344 0.000000 6.531025 -0.000000 -0.000000 -0.000000 -0.000000 10.352196 0.000000 -4.525865 108.243041 -61.371883 92.675689 180.000037 -68.203123 180.000037 1.400968 7.296287 44.598312 -0.000000 0.000000 -0.000000 -3.784637 -0.000000 6.090215 -80.791596 -18.781791 -89.673622 -0.001322 -83.439739 -0.001179 10.463691 -6.332808 -44.890594 -0.000000 0.000000 -0.000000 -0.000000 -0.000000 -0.000000 -15.519293 4.379294 -12.492260 -0.000000 -0.000000 -0.000000 
17.712400 87.661000 72.473000 20.245381 2.982781 -93.542915 3.634156 -44.677288 -8.213316 0.000000 31.062279 -0.000000 5.622701 23.378558 -2.759075 -0.000000 0.683789 0.000000 0.000000 -0.000000 -0.000000 8.227893 -29.062835 45.437829 0.000000 20.506102 -0.000000 1.198242 12.463478 -3.322210 -0.000000 -4.942184 -0.000000 -0.000000 0.000000 0.000000 5.419377 41.213412 -7.565020 -0.000000 6.658735 -0.000000 -0.000000 -0.000000 -0.000000 10.529786 0.000000 -4.274356 107.727226 -61.422472 92.101407 -180.000037 -68.171929 -180.000037 1.523498 7.376828 44.794649 0.000000 0.000000 -0.000000 -3.587231 -0.000000 6.206108 -81.632497 -18.674321 -89.642151 -0.001211 -82.843921 -0.001068 9.671651 -6.014309 -44.773652 -0.000000 -0.000000 -0.000000 -0.000000 -0.000000 -0.000000 -15.425758 4.478676 -12.369679 0.000000 -0.000000 -0.000000 
15.519400 87.541300 72.730700 19.831065 2.552220 -92.747420 3.810991 -44.899632 -9.391406 -0.000000 26.837504 0.000000 7.316144 25.939695 -2.987534 -0.000000 -3.313789 -0.000000 -0.000000 0.000000 0.000000 7.309103 -27.642164 44.486458 -0.000000 21.318516 -0.000000 0.677921 11.814200 -3.351898 0.000000 -6.279465 -0.000000 0.000000 0.000000 -0.000000 5.998727 41.223508 -8.962386 -0.000000 6.773580 0.000000 0.000000 -0.000000 -0.000000 10.703243 0.000000 -4.022561 107.242405 -61.499086 91.573682 -180.000037 -68.123974 -180.000037 1.565749 7.458322 44.936437 -0.000000 -0.000000 0.000000 -3.294435 0.000000 6.277806 -82.545569 -18.830799 -89.938726 -0.001102 -82.148020 -0.000961 9.194069 -6.058009 -44.914841 -0.000000 0.000000 -0.000000 0.000000 -0.000000 -0.000000 -15.260837 4.632889 -12.208250 -0.000000 -0.000000 -0.000000 
13.323300 87.356500 72.944500 19.256183 2.089471 -91.927083 3.519562 -45.163278 -11.214921 0.000000 25.093164 -0.000000 8.451936 27.222232 -2.502710 -0.000000 -0.965356 -0.000000 -0.000000 -0.000000 -0.000000 6.493375 -26.206646 43.211599 -0.000000 22.454059 -0.000000 0.868937 11.628280 -3.208074 -0.000000 -8.583766 -0.000000 0.000000 -0.000000 -0.000000 6.471591 41.223702 -10.307019 0.000000 6.908626 -0.000000 0.000000 -0.000000 -0.000000 10.808947 -0.000000 -4.073772 106.800059 -61.566202 90.976067 -180.000037 -68.130750 -180.000037 1.545028 7.483835 45.018096 -0.000000 -0.000000 0.000000 -3.044436 0.000000 6.324591 -83.529426 -19.363929 -90.666801 -0.001007 -81.412518 -0.000866 8.845885 -6.136456 -44.880745 -0.000000 -0.000000 0.000000 0.000000 -0.000000 -0.000000 -15.037218 5.015091 -12.193989 0.000000 -0.000000 -0.000000 
